<?xml version="1.0" standalone="no"?>
<!DOCTYPE svg PUBLIC "-//W3C//DTD SVG 20010904//EN"
 "http://www.w3.org/TR/2001/REC-SVG-20010904/DTD/svg10.dtd">
<svg version="1.0" xmlns="http://www.w3.org/2000/svg"
 width="200.000000pt" height="200.000000pt" viewBox="0 0 200.000000 200.000000"
 preserveAspectRatio="xMidYMid meet">
<metadata>
Created by potrace 1.14, written by Peter Selinger 2001-2017
</metadata>
<g transform="translate(0.000000,200.000000) scale(0.100000,-0.100000)"
fill="#000000" stroke="none">
<path d="M0 1000 l0 -1000 1000 0 1000 0 0 1000 0 1000 -1000 0 -1000 0 0
-1000z m215 -180 c0 -18 -6 -26 -22 -28 -12 -2 -24 -11 -26 -20 -3 -9 -5 5 -6
31 -1 47 0 48 27 45 21 -2 27 -8 27 -28z m97 0 c-1 -14 -3 -34 -3 -45 0 -19
-1 -19 -13 -2 -16 21 -26 22 -26 2 0 -8 -4 -15 -10 -15 -5 0 -10 21 -10 46 0
45 0 45 33 42 28 -3 32 -6 29 -28z m106 18 c28 -28 7 -78 -33 -78 -27 0 -45
18 -45 45 0 27 18 45 45 45 12 0 26 -5 33 -12z m125 -18 c6 -16 14 -30 17 -30
3 0 11 14 17 30 17 44 33 37 33 -15 0 -45 -19 -66 -21 -22 l0 22 -11 -22 c-6
-13 -14 -23 -18 -23 -4 0 -12 10 -18 23 l-11 22 0 -22 c-2 -44 -21 -23 -21 22
0 52 16 59 33 15z m165 18 c17 -17 15 -53 -3 -68 -8 -7 -25 -10 -40 -6 -24 6
-30 21 -25 56 4 29 46 40 68 18z m66 -20 c6 -33 21 -30 28 6 1 11 8 21 14 23
8 3 6 -12 -4 -42 -19 -50 -28 -56 -41 -22 -18 49 -22 67 -13 67 5 0 12 -14 16
-32z m129 25 c-16 -6 -17 -55 -1 -71 9 -9 4 -12 -22 -11 -19 0 -29 3 -22 6 6
2 12 20 12 38 0 18 -6 36 -12 38 -7 3 3 5 22 5 19 0 29 -2 23 -5z m69 -18 c15
-33 26 -32 31 3 2 16 5 9 6 -20 1 -54 -11 -61 -33 -20 l-15 27 -1 -27 c0 -16
-4 -28 -10 -28 -5 0 -10 20 -10 45 0 50 14 59 32 20z m138 15 c0 -5 -9 -10
-20 -10 -11 0 -23 -7 -26 -15 -8 -20 13 -45 32 -38 11 4 12 9 3 19 -9 11 -7
14 10 14 24 0 25 -4 11 -31 -12 -21 -50 -25 -68 -7 -15 15 -15 51 0 66 15 15
58 16 58 2z m149 -12 c24 -64 24 -63 -18 -63 l-38 0 14 42 c17 48 29 54 42 21z
m71 -10 l13 -33 10 33 c5 17 14 32 20 32 5 0 6 -8 2 -17 -4 -10 -12 -30 -17
-45 -14 -39 -24 -35 -41 17 -18 51 -5 62 13 13z m113 22 c-13 -5 -23 -12 -23
-15 0 -3 10 -10 23 -15 l22 -9 -22 0 c-13 -1 -23 -6 -23 -11 0 -6 10 -15 23
-20 20 -8 19 -9 -10 -9 -32 -1 -33 0 -33 44 0 44 1 45 33 44 29 0 30 -1 10 -9z
m113 -5 c4 -8 3 -23 -2 -32 -4 -10 -6 -25 -5 -33 1 -12 -1 -11 -12 3 -17 21
-27 22 -27 2 0 -8 -4 -15 -10 -15 -5 0 -10 20 -10 45 0 43 1 45 30 45 18 0 33
-6 36 -15z m87 -28 l14 -42 -38 0 c-34 0 -38 2 -33 20 25 79 36 83 57 22z
m107 34 c0 -5 -10 -11 -22 -13 -25 -3 -37 -36 -17 -48 20 -13 42 0 28 16 -9
11 -7 14 9 14 18 0 20 -4 13 -22 -9 -26 -45 -35 -67 -18 -17 15 -18 52 -2 68
14 14 58 16 58 3z m83 2 c-13 -2 -23 -11 -23 -19 0 -8 10 -15 23 -15 l22 -2
-22 -4 c-13 -2 -23 -9 -23 -14 0 -5 10 -14 23 -19 20 -8 19 -9 -10 -9 -32 -1
-33 0 -33 44 0 44 0 45 33 44 23 -1 26 -3 10 -6z m-986 -340 c-2 -21 -4 -6 -4
32 0 39 2 55 4 38 2 -18 2 -50 0 -70z m-180 -40 c-2 -21 -4 -4 -4 37 0 41 2
58 4 38 2 -21 2 -55 0 -75z m701 -60 c-10 -2 -26 -2 -35 0 -10 3 -2 5 17 5 19
0 27 -2 18 -5z m250 0 c-10 -2 -26 -2 -35 0 -10 3 -2 5 17 5 19 0 27 -2 18 -5z"/>
<path d="M177 834 c-13 -13 -7 -24 14 -24 11 0 19 5 17 12 -5 14 -22 21 -31
12z"/>
<path d="M270 826 c0 -9 7 -16 16 -16 9 0 14 5 12 12 -6 18 -28 21 -28 4z"/>
<path d="M360 806 c0 -13 6 -26 13 -29 22 -7 37 4 37 29 0 19 -5 24 -25 24
-20 0 -25 -5 -25 -24z"/>
<path d="M653 814 c-3 -8 1 -22 9 -30 12 -12 17 -12 33 -1 23 17 14 47 -15 47
-11 0 -23 -7 -27 -16z"/>
<path d="M1236 811 c-4 -7 -5 -15 -2 -18 9 -9 19 4 14 18 -4 11 -6 11 -12 0z"/>
<path d="M1510 826 c0 -9 7 -16 16 -16 9 0 14 5 12 12 -6 18 -28 21 -28 4z"/>
<path d="M1610 806 c0 -9 5 -16 10 -16 6 0 10 4 10 9 0 6 -4 13 -10 16 -5 3
-10 -1 -10 -9z"/>
</g>
</svg>
