<?xml version="1.0" standalone="no"?>
<!DOCTYPE svg PUBLIC "-//W3C//DTD SVG 20010904//EN"
 "http://www.w3.org/TR/2001/REC-SVG-20010904/DTD/svg10.dtd">
<svg version="1.0" xmlns="http://www.w3.org/2000/svg"
 width="260.000000pt" height="260.000000pt" viewBox="0 0 260.000000 260.000000"
 preserveAspectRatio="xMidYMid meet">
<metadata>
Created by potrace 1.14, written by Peter Selinger 2001-2017
</metadata>
<g transform="translate(0.000000,260.000000) scale(0.100000,-0.100000)"
fill="#000000" stroke="none">
<path d="M0 1300 l0 -1300 1300 0 1300 0 0 1300 0 1300 -1300 0 -1300 0 0
-1300z m1540 855 c281 -71 495 -248 614 -507 50 -108 66 -179 73 -318 9 -206
-38 -380 -147 -540 -182 -268 -504 -424 -840 -407 -435 22 -798 320 -882 723
-26 126 -21 300 12 414 99 350 391 595 785 661 93 15 271 3 385 -26z"/>
<path d="M1235 2003 c-320 -24 -592 -268 -646 -580 -16 -94 -6 -283 19 -354
51 -144 123 -252 225 -337 74 -62 215 -128 317 -148 63 -12 112 -15 190 -11
189 11 308 64 441 197 93 92 144 172 178 280 42 133 44 314 6 448 -68 234
-281 439 -507 485 -80 17 -161 24 -223 20z m260 -277 c124 -38 195 -124 195
-233 0 -93 -43 -155 -144 -205 l-48 -25 30 -12 c63 -26 111 -102 138 -216 15
-65 42 -157 59 -197 7 -17 -2 -18 -108 -18 l-116 0 -21 57 c-12 32 -30 92 -40
134 -32 134 -66 160 -209 163 l-86 1 -3 -177 -2 -178 -105 0 -105 0 0 449 0
449 42 7 c164 28 436 28 523 1z"/>
<path d="M1157 1583 c-4 -3 -7 -62 -7 -131 l0 -124 103 4 c71 2 113 9 137 21
93 46 93 170 0 217 -31 16 -59 20 -133 20 -51 0 -97 -3 -100 -7z"/>
</g>
</svg>
