<?xml version="1.0" standalone="no"?>
<!DOCTYPE svg PUBLIC "-//W3C//DTD SVG 20010904//EN"
 "http://www.w3.org/TR/2001/REC-SVG-20010904/DTD/svg10.dtd">
<svg version="1.0" xmlns="http://www.w3.org/2000/svg"
 width="260.000000pt" height="260.000000pt" viewBox="0 0 260.000000 260.000000"
 preserveAspectRatio="xMidYMid meet">
<metadata>
Created by potrace 1.14, written by Peter Selinger 2001-2017
</metadata>
<g transform="translate(0.000000,260.000000) scale(0.100000,-0.100000)"
fill="#000000" stroke="none">
<path d="M0 1300 l0 -1300 1300 0 1300 0 0 1300 0 1300 -1300 0 -1300 0 0
-1300z m1525 842 c335 -94 571 -327 662 -656 12 -44 17 -101 18 -211 0 -128
-3 -162 -23 -230 -94 -327 -344 -566 -682 -651 -115 -29 -376 -27 -484 4 -168
48 -298 120 -413 226 -266 246 -355 632 -224 972 107 278 382 501 688 559 111
21 363 14 458 -13z"/>
<path d="M1121 1980 c-465 -98 -703 -620 -480 -1051 161 -310 539 -451 882
-330 186 66 344 232 413 436 32 97 44 276 25 377 -50 255 -228 460 -473 545
-60 21 -96 26 -198 29 -69 2 -145 -1 -169 -6z m315 -261 c79 -14 159 -60 197
-115 23 -32 30 -56 34 -107 9 -106 -37 -177 -147 -226 l-40 -18 43 -27 c58
-37 91 -90 116 -189 12 -45 32 -115 44 -154 l23 -73 -113 0 c-133 0 -120 -11
-163 151 -16 61 -36 122 -45 135 -28 44 -85 64 -180 64 l-85 0 0 -175 0 -176
-105 3 -106 3 1 444 c0 245 2 446 3 447 1 2 36 7 77 12 107 13 372 14 446 1z"/>
<path d="M1152 1573 c-22 -4 -23 -6 -20 -131 l3 -127 92 1 c151 3 223 53 210
147 -7 51 -39 84 -101 102 -47 14 -133 18 -184 8z"/>
</g>
</svg>
